# xmcd
#
# Track frame offsets: 
#        150
#        13260
#        22785
#        32517
#        43272
#        53780
#        66192
#        77395
#        88482
#        99647
#        112620
#        125297
#        136997
#        147515
#        162685
#        173720
#        185365
#        196940
#        210282
#        222490
#        231615
#        242677
#        252982
#        264627
#        279890
#        292142
#        307742
#        319280
#        329610
#
# Disc length: 4525 seconds
#
# Revision: 2
# Processed by: cddbd v1.5.2PL0 Copyright (c) Steve Scherf et al.
# Submitted via: ExactAudioCopy v0.95b4
#
DISCID=ab11ab1d
DTITLE=Chet Atkins - High Rockin' Swing [CD 4)
DYEAR=2004
DGENRE=Country
TTITLE0=Get Up and Go
TTITLE1=Pagan Love Song
TTITLE2=Beautiful Ohio (Version 2)
TTITLE3=Downhill Drag
TTITLE4=Avalon
TTITLE5=Sunrize Serenade
TTITLE6=San Antonio Rose
TTITLE7=Set A Spell
TTITLE8=Mister Misery
TTITLE9=Get Up and Go
TTITLE10=South
TTITLE11=Alabama Jubilee
TTITLE12=Corrine, Corrina
TTITLE13=Indiana (Back Home In Indiana)
TTITLE14=Red Wing
TTITLE15=Frankie And Johnnie
TTITLE16=A Gay Ranchero
TTITLE17=Ballin' The Jack
TTITLE18=Honeysuckle Rose
TTITLE19=Darktown Strutters Ball
TTITLE20=The Old Spinning Wheel
TTITLE21=Silver Bell
TTITLE22=Under the Double Eagle
TTITLE23=The Birth of the Blues
TTITLE24=Have You Ever Been Lonely
TTITLE25=Caravan
TTITLE26=Old Man River
TTITLE27=Mister Sandman
TTITLE28=New Spanish Two Step
EXTD=
EXTT0=
EXTT1=
EXTT2=
EXTT3=
EXTT4=
EXTT5=
EXTT6=
EXTT7=
EXTT8=
EXTT9=
EXTT10=
EXTT11=
EXTT12=
EXTT13=
EXTT14=
EXTT15=
EXTT16=
EXTT17=
EXTT18=
EXTT19=
EXTT20=
EXTT21=
EXTT22=
EXTT23=
EXTT24=
EXTT25=
EXTT26=
EXTT27=
EXTT28=
PLAYORDER=
